<svg width="1392" height="1080" viewBox="0 0 1392 1080" fill="none" xmlns="http://www.w3.org/2000/svg">
<g opacity="0.3">
<path d="M696.208 820.659C974.718 820.659 1200.49 592.407 1200.49 310.844C1200.49 29.2812 974.718 -198.971 696.208 -198.971C417.699 -198.971 191.922 29.2812 191.922 310.844C191.922 592.407 417.699 820.659 696.208 820.659Z" stroke="white" stroke-width="2" stroke-miterlimit="10"/>
<path d="M886.712 1151.8C1165.22 1151.8 1391 923.549 1391 641.986C1391 360.423 1165.22 132.171 886.712 132.171C608.203 132.171 382.426 360.423 382.426 641.986C382.426 923.549 608.203 1151.8 886.712 1151.8Z" stroke="white" stroke-width="2" stroke-miterlimit="10"/>
<path d="M505.595 1151.8C784.105 1151.8 1009.88 923.549 1009.88 641.986C1009.88 360.423 784.105 132.171 505.595 132.171C227.085 132.171 1.30859 360.423 1.30859 641.986C1.30859 923.549 227.085 1151.8 505.595 1151.8Z" stroke="white" stroke-width="2" stroke-miterlimit="10"/>
</g>
</svg>
