<svg width="40" height="40" viewBox="0 0 40 40" fill="none" xmlns="http://www.w3.org/2000/svg">
<rect width="40" height="40" rx="20" fill="#37473A"/>
<rect width="40" height="40" rx="20" fill="#3E4C3D"/>
<path d="M28.9991 13.8994C28.325 14.2254 27.6101 14.4395 26.878 14.5346C27.6496 14.0301 28.2271 13.2362 28.5028 12.3007C27.7787 12.7718 26.9849 13.102 26.1575 13.2806C25.6017 12.6304 24.865 12.1993 24.062 12.0541C23.2589 11.9089 22.4345 12.0579 21.7169 12.4778C20.9992 12.8977 20.4286 13.565 20.0937 14.3761C19.7588 15.1871 19.6783 16.0964 19.8649 16.9626C18.3965 16.8821 16.96 16.4649 15.6486 15.7381C14.3372 15.0113 13.1804 13.9911 12.253 12.7438C11.9248 13.3602 11.7523 14.0608 11.7532 14.774C11.7532 16.1739 12.4049 17.4105 13.3957 18.1346C12.8094 18.1144 12.2359 17.9413 11.7232 17.6297V17.6799C11.7234 18.6122 12.0185 19.5157 12.5584 20.2373C13.0984 20.9589 13.85 21.4541 14.6858 21.639C14.1415 21.8002 13.5708 21.824 13.0169 21.7085C13.2525 22.511 13.7118 23.2128 14.3305 23.7157C14.9491 24.2185 15.6961 24.4973 16.4669 24.513C15.7009 25.1707 14.8237 25.657 13.8857 25.9439C12.9476 26.2308 11.967 26.3127 11 26.185C12.6881 27.3719 14.6532 28.002 16.6603 28C23.4536 28 27.1686 21.8475 27.1686 16.5117C27.1686 16.338 27.1641 16.1623 27.1571 15.9904C27.8802 15.4191 28.5043 14.7113 29 13.9003L28.9991 13.8994Z" fill="white"/>
</svg>
