<svg width="40" height="40" viewBox="0 0 40 40" fill="none" xmlns="http://www.w3.org/2000/svg">
<rect width="40" height="40" rx="20" fill="#37473A"/>
<rect width="40" height="40" rx="20" fill="#3E4C3D"/>
<path fill-rule="evenodd" clip-rule="evenodd" d="M11.3749 18.7489C16.7436 16.2087 20.3236 14.534 22.1148 13.7249C27.2292 11.4147 28.2919 11.0134 28.9846 11.0001C29.1369 10.9972 29.4776 11.0382 29.6982 11.2327C29.8845 11.3968 29.9358 11.6186 29.9603 11.7743C29.9848 11.93 30.0154 12.2846 29.9911 12.5616C29.714 15.7241 28.5147 23.3986 27.9046 26.9406C27.6465 28.4394 27.1382 28.9419 26.6461 28.9911C25.5766 29.098 24.7645 28.2235 23.7287 27.4861C22.1078 26.3323 21.1921 25.614 19.6188 24.488C17.8005 23.1868 18.9792 22.4716 20.0154 21.3027C20.2866 20.9969 24.9987 16.3423 25.0899 15.92C25.1013 15.8672 25.1119 15.6704 25.0042 15.5664C24.8965 15.4625 24.7376 15.498 24.6229 15.5263C24.4604 15.5664 21.871 17.425 16.8549 21.1022C16.1199 21.6503 15.4542 21.9174 14.8577 21.9034C14.2001 21.888 12.9353 21.4996 11.995 21.1677C10.8417 20.7606 9.92503 20.5453 10.0048 19.8539C10.0464 19.4937 10.5031 19.1254 11.3749 18.7489Z" fill="white"/>
</svg>
