<svg width="40" height="40" viewBox="0 0 40 40" fill="none" xmlns="http://www.w3.org/2000/svg">
<path d="M23.0831 25.9447C22.8161 26.0156 22.5475 26.0785 22.2773 26.1334C20.8114 26.434 19.3063 26.4279 17.8425 26.1152C17.5861 26.0608 17.2232 25.9646 16.7555 25.8286L15.2222 28C11.4383 27.8676 10 25.1048 10 25.1048C10 18.9715 12.4655 13.9992 12.4655 13.9992C14.9309 11.9439 17.2765 12.0002 17.2765 12.0002L17.9474 12.9525C18.0092 12.9431 18.0715 12.937 18.1338 12.9344C19.4127 12.7497 20.7087 12.7558 21.986 12.9525L22.7218 12.0002C22.7218 12.0002 25.0691 11.9439 27.5329 14.001C27.5329 14.001 30 18.9715 30 25.1048C30 25.1048 28.5434 27.8658 24.7594 28L23.0831 25.9447ZM16.6939 19.4504C15.6934 19.4504 14.9026 20.2667 14.9026 21.2645C14.9026 22.2622 15.71 23.0785 16.6939 23.0785C17.6927 23.0785 18.4834 22.2622 18.4834 21.2645C18.5001 20.2667 17.6944 19.4504 16.6939 19.4504ZM23.0997 19.4504C22.1009 19.4504 21.3101 20.2667 21.3101 21.2645C21.3101 22.2622 22.1175 23.0785 23.0997 23.0785C24.1002 23.0785 24.891 22.2622 24.891 21.2645C24.891 20.2667 24.1002 19.4504 23.0997 19.4504Z" fill="white"/>
</svg>
