<svg width="40" height="40" viewBox="0 0 40 40" fill="none" xmlns="http://www.w3.org/2000/svg">
<rect width="40" height="40" rx="20" fill="#37473A"/>
<rect width="40" height="40" rx="20" fill="#3E4C3D"/>
<path d="M20.0026 10.832C22.4932 10.832 22.8039 10.8412 23.7811 10.887C24.7574 10.9329 25.4219 11.0859 26.0068 11.3133C26.6118 11.5461 27.1214 11.8614 27.6311 12.3702C28.0972 12.8284 28.4579 13.3827 28.688 13.9945C28.9144 14.5784 29.0684 15.2439 29.1143 16.2202C29.1574 17.1974 29.1693 17.5081 29.1693 19.9987C29.1693 22.4893 29.1601 22.8 29.1143 23.7772C29.0684 24.7534 28.9144 25.418 28.688 26.0029C28.4586 26.615 28.0978 27.1694 27.6311 27.6272C27.1727 28.0932 26.6185 28.4538 26.0068 28.6841C25.4229 28.9105 24.7574 29.0645 23.7811 29.1104C22.8039 29.1534 22.4932 29.1654 20.0026 29.1654C17.512 29.1654 17.2013 29.1562 16.2241 29.1104C15.2479 29.0645 14.5833 28.9105 13.9984 28.6841C13.3864 28.4545 12.832 28.0937 12.3741 27.6272C11.9079 27.169 11.5472 26.6147 11.3172 26.0029C11.0899 25.4189 10.9368 24.7534 10.8909 23.7772C10.8479 22.8 10.8359 22.4893 10.8359 19.9987C10.8359 17.5081 10.8451 17.1974 10.8909 16.2202C10.9368 15.243 11.0899 14.5794 11.3172 13.9945C11.5466 13.3824 11.9073 12.8279 12.3741 12.3702C12.8321 11.9038 13.3865 11.5431 13.9984 11.3133C14.5833 11.0859 15.2469 10.9329 16.2241 10.887C17.2013 10.8439 17.512 10.832 20.0026 10.832ZM20.0026 15.4154C18.787 15.4154 17.6212 15.8983 16.7617 16.7578C15.9022 17.6173 15.4193 18.7831 15.4193 19.9987C15.4193 21.2143 15.9022 22.3801 16.7617 23.2396C17.6212 24.0991 18.787 24.582 20.0026 24.582C21.2182 24.582 22.384 24.0991 23.2435 23.2396C24.1031 22.3801 24.5859 21.2143 24.5859 19.9987C24.5859 18.7831 24.1031 17.6173 23.2435 16.7578C22.384 15.8983 21.2182 15.4154 20.0026 15.4154ZM25.9609 15.1862C25.9609 14.8823 25.8402 14.5909 25.6253 14.376C25.4104 14.1611 25.119 14.0404 24.8151 14.0404C24.5112 14.0404 24.2198 14.1611 24.0049 14.376C23.79 14.5909 23.6693 14.8823 23.6693 15.1862C23.6693 15.4901 23.79 15.7815 24.0049 15.9964C24.2198 16.2113 24.5112 16.332 24.8151 16.332C25.119 16.332 25.4104 16.2113 25.6253 15.9964C25.8402 15.7815 25.9609 15.4901 25.9609 15.1862ZM20.0026 17.2487C20.7319 17.2487 21.4314 17.5384 21.9471 18.0542C22.4629 18.5699 22.7526 19.2694 22.7526 19.9987C22.7526 20.728 22.4629 21.4275 21.9471 21.9432C21.4314 22.459 20.7319 22.7487 20.0026 22.7487C19.2733 22.7487 18.5738 22.459 18.0581 21.9432C17.5423 21.4275 17.2526 20.728 17.2526 19.9987C17.2526 19.2694 17.5423 18.5699 18.0581 18.0542C18.5738 17.5384 19.2733 17.2487 20.0026 17.2487Z" fill="white"/>
</svg>
