<svg width="80" height="40" viewBox="0 0 80 40" fill="none" xmlns="http://www.w3.org/2000/svg">
<g opacity="0.5">
<path d="M14.2763 38.7733C13.9831 39.1165 13.5325 39.3333 13.0171 39.3333C12.0758 39.3333 11.332 38.5896 11.332 37.6712C11.332 36.7468 12.0758 36.003 13.0171 36.003C13.5295 36.003 13.9739 36.2138 14.2671 36.554L13.9307 36.8281C13.7054 36.5872 13.3844 36.4276 13.0171 36.4276C12.3227 36.4276 11.7795 36.9846 11.7795 37.6712C11.7795 38.3577 12.3196 38.9088 13.0171 38.9088C13.3875 38.9088 13.7177 38.7492 13.9399 38.4932L14.2763 38.7733Z" fill="white"/>
<path d="M18.7237 36.003C19.6743 36.003 20.415 36.7468 20.415 37.6712C20.415 38.5896 19.6774 39.3333 18.7237 39.3333C17.7762 39.3333 17.0447 38.5896 17.0447 37.6712C17.0447 36.7468 17.7793 36.003 18.7237 36.003ZM18.7237 38.9088C19.4243 38.9088 19.9613 38.3577 19.9613 37.6712C19.9613 36.9846 19.4243 36.4276 18.7237 36.4276C18.0293 36.4276 17.4923 36.9846 17.4923 37.6712C17.4923 38.3577 18.0293 38.9088 18.7237 38.9088Z" fill="white"/>
<path d="M26.4949 36.0392H26.9054L27.3128 39.2852H26.8684L26.5628 36.8462L25.5258 38.9269H25.1308L24.0815 36.8462L23.7759 39.2852H23.3346L23.7389 36.0392H24.1493L25.3221 38.424L26.4949 36.0392Z" fill="white"/>
<path d="M33.4236 36.0392H33.8341L34.2384 39.2852H33.794L33.4916 36.8462L32.4515 38.9269H32.0564L31.0071 36.8462L30.7046 39.2852H30.2602L30.6645 36.0392H31.075L32.2509 38.424L33.4236 36.0392Z" fill="white"/>
<path d="M39.3215 38.1681V36.0392H39.7752V38.1681C39.7752 38.8757 39.2166 39.3304 38.5592 39.3304C37.9019 39.3304 37.3432 38.8727 37.3432 38.1681V36.0392H37.7969V38.1681C37.7969 38.6167 38.1488 38.9088 38.5592 38.9088C38.9697 38.9088 39.3215 38.6167 39.3215 38.1681Z" fill="white"/>
<path d="M45.0312 39.2852L43.5158 36.8401V39.2852H43.0652V36.0392H43.5096L45.0126 38.4662V36.0392H45.4602V39.2852H45.0312Z" fill="white"/>
<path d="M49.2347 36.0392H48.7841V39.2852H49.2347V36.0392Z" fill="white"/>
<path d="M54.7098 36.0392V36.4547H53.7006V39.2852H53.2469V36.4547H52.2377V36.0392H54.7098Z" fill="white"/>
<path d="M58.1664 36.0392H57.7158V39.2852H58.1664V36.0392Z" fill="white"/>
<path d="M63.4594 36.0392V36.4487H61.9379V37.4845H63.265V37.8971H61.9379V38.8757H63.5088V39.2852H61.4903V36.0392H63.4594Z" fill="white"/>
<path d="M67.5425 38.9238C67.9684 38.9238 68.1752 38.692 68.2154 38.4481C68.2431 38.0988 67.9499 37.9332 67.6506 37.8699L67.2215 37.7645C66.5179 37.5899 66.4099 37.1984 66.4099 36.9154C66.4099 36.3674 66.9222 36 67.487 36C68.095 36 68.5579 36.3674 68.5579 36.9515H68.1104C68.1104 36.6263 67.845 36.4186 67.4839 36.4186C67.1598 36.4186 66.8605 36.6113 66.8605 36.9094C66.8605 37.0509 66.9129 37.2617 67.3327 37.361L67.7678 37.4634C68.3913 37.62 68.7246 37.9633 68.6567 38.4812C68.598 38.9479 68.1968 39.3303 67.5456 39.3303C66.8635 39.3303 66.3821 38.8546 66.3821 38.3457H66.8327C66.8327 38.6317 67.1197 38.9238 67.5425 38.9238Z" fill="white"/>
<path d="M16.5562 0.500376C13.2171 -0.446606 9.70776 -0.0407582 6.67688 1.64413C3.64353 3.32902 1.45115 6.09125 0.501684 9.42168C-0.447778 12.7521 -0.0408595 16.2522 1.64844 19.2752C3.33774 22.3006 6.10721 24.4873 9.44636 25.4343C10.6301 25.7713 11.8237 25.9311 12.9976 25.9311C18.6574 25.9311 23.8806 22.2072 25.5034 16.5154C27.4615 9.64059 23.4491 2.45583 16.5562 0.500376ZM23.3948 15.9177C21.7647 21.6341 15.7745 24.962 10.0432 23.3362C7.26629 22.5491 4.96293 20.7289 3.5597 18.2151C2.154 15.6988 1.81613 12.789 2.60776 10.0194C3.39692 7.24977 5.22186 4.95242 7.74225 3.55285C9.37237 2.64769 11.1677 2.18526 12.9853 2.18526C13.9791 2.18526 14.9779 2.32301 15.9594 2.60095C21.6907 4.22681 25.0249 10.2014 23.3948 15.9177ZM67.5362 0.109286H65.107L66.6015 3.21095L55.6272 25.9877L55.6494 25.9975H58.0514L67.8148 5.72968L77.5782 25.9975H79.9803L80 25.9877L67.5362 0.109286ZM42.3816 15.106L35.1163 0.111744H32.6872L41.1658 17.6272L37.1361 25.9902L37.1583 26H39.5603L52.0316 0.109286H49.6024L42.3816 15.106Z" fill="white"/>
</g>
</svg>
